<svg x="0" y="0" xmlns="http://www.w3.org/2000/svg" width="1500" height="1500"><svg x="10" y="10" width="500" height="500"><circle cx="250" cy="250" r="200" stroke="blue" stroke-width="5" fill="none"></circle><line stroke="green" stroke-width="5" x1="250" y1="50" x2="426.5895185717854" y2="156.10568744282182"></line><circle cx="250" cy="50" r="10" fill="green"></circle><line stroke="green" stroke-width="5" x1="425.9297145733233" y1="154.87515818594494" x2="353.00761498201086" y2="421.4334601404224"></line><circle cx="425.9297145733233" cy="154.87515818594494" r="10" fill="green"></circle><line stroke="green" stroke-width="5" x1="352.4085729741143" y1="421.7919793861329" x2="146.99238501798914" y2="421.4334601404224"></line><circle cx="352.4085729741143" cy="421.7919793861329" r="10" fill="green"></circle><line stroke="green" stroke-width="5" x1="147.5914270258857" y1="421.7919793861329" x2="73.41048142821458" y2="156.1056874428219"></line><circle cx="147.5914270258857" cy="421.7919793861329" r="10" fill="green"></circle><line stroke="green" stroke-width="5" x1="74.07028542667672" y1="154.87515818594494" x2="250" y2="50"></line><circle cx="74.07028542667672" cy="154.87515818594494" r="10" fill="green"></circle><circle cx="250" cy="50" r="10" stroke="blue" stroke-width="5" fill="white"></circle><text dominant-baseline="central" text-anchor="middle" x="250" y="25">C</text><circle cx="350" cy="76.79491924311225" r="10" stroke="blue" stroke-width="5" fill="white"></circle><text dominant-baseline="central" text-anchor="middle" x="362.5" y="55.1442841485013">C♯</text><circle cx="423.2050807568877" cy="150" r="10" stroke="blue" stroke-width="5" fill="white"></circle><text dominant-baseline="central" text-anchor="middle" x="444.85571585149864" y="137.5">D</text><circle cx="450" cy="250" r="10" stroke="blue" stroke-width="5" fill="white"></circle><text dominant-baseline="central" text-anchor="middle" x="475" y="250">E♭</text><circle cx="423.20508075688775" cy="350" r="10" stroke="blue" stroke-width="5" fill="white"></circle><text dominant-baseline="central" text-anchor="middle" x="444.8557158514987" y="362.49999999999994">E</text><circle cx="350" cy="423.20508075688775" r="10" stroke="blue" stroke-width="5" fill="white"></circle><text dominant-baseline="central" text-anchor="middle" x="362.5" y="444.8557158514987">F</text><circle cx="250" cy="450" r="10" stroke="blue" stroke-width="5" fill="white"></circle><text dominant-baseline="central" text-anchor="middle" x="250" y="475">F♯</text><circle cx="150.00000000000006" cy="423.20508075688775" r="10" stroke="blue" stroke-width="5" fill="white"></circle><text dominant-baseline="central" text-anchor="middle" x="137.50000000000006" y="444.8557158514987">G</text><circle cx="76.7949192431123" cy="350.00000000000006" r="10" stroke="blue" stroke-width="5" fill="white"></circle><text dominant-baseline="central" text-anchor="middle" x="55.14428414850133" y="362.50000000000006">A♭</text><circle cx="50" cy="250.00000000000003" r="10" stroke="blue" stroke-width="5" fill="white"></circle><text dominant-baseline="central" text-anchor="middle" x="25" y="250.00000000000003">A</text><circle cx="76.79491924311228" cy="149.99999999999997" r="10" stroke="blue" stroke-width="5" fill="white"></circle><text dominant-baseline="central" text-anchor="middle" x="55.14428414850133" y="137.49999999999997">B♭</text><circle cx="149.99999999999991" cy="76.79491924311233" r="10" stroke="blue" stroke-width="5" fill="white"></circle><text dominant-baseline="central" text-anchor="middle" x="137.4999999999999" y="55.144284148501356">B</text></svg><svg x="510" y="10" width="500" height="500"><circle cx="250" cy="250" r="200" stroke="blue" stroke-width="5" fill="none"></circle><line stroke="green" stroke-width="5" x1="250" y1="50" x2="440.21130325903073" y2="188.19660112501052"></line><circle cx="250" cy="50" r="10" fill="green"></circle><line stroke="green" stroke-width="5" x1="440.21130325903073" y1="188.19660112501052" x2="367.55705045849464" y2="411.8033988749895"></line><circle cx="440.21130325903073" cy="188.19660112501052" r="10" fill="green"></circle><line stroke="green" stroke-width="5" x1="367.55705045849464" y1="411.8033988749895" x2="132.4429495415054" y2="411.8033988749895"></line><circle cx="367.55705045849464" cy="411.8033988749895" r="10" fill="green"></circle><line stroke="green" stroke-width="5" x1="132.4429495415054" y1="411.8033988749895" x2="59.78869674096927" y2="188.19660112501055"></line><circle cx="132.4429495415054" cy="411.8033988749895" r="10" fill="green"></circle><line stroke="green" stroke-width="5" x1="59.78869674096927" y1="188.19660112501055" x2="250" y2="50"></line><circle cx="59.78869674096927" cy="188.19660112501055" r="10" fill="green"></circle><circle cx="250" cy="50" r="10" stroke="blue" stroke-width="5" fill="white"></circle><text dominant-baseline="central" text-anchor="middle" x="250" y="25">C</text><circle cx="350" cy="76.79491924311225" r="10" stroke="blue" stroke-width="5" fill="white"></circle><text dominant-baseline="central" text-anchor="middle" x="362.5" y="55.1442841485013">C♯</text><circle cx="423.2050807568877" cy="150" r="10" stroke="blue" stroke-width="5" fill="white"></circle><text dominant-baseline="central" text-anchor="middle" x="444.85571585149864" y="137.5">D</text><circle cx="450" cy="250" r="10" stroke="blue" stroke-width="5" fill="white"></circle><text dominant-baseline="central" text-anchor="middle" x="475" y="250">E♭</text><circle cx="423.20508075688775" cy="350" r="10" stroke="blue" stroke-width="5" fill="white"></circle><text dominant-baseline="central" text-anchor="middle" x="444.8557158514987" y="362.49999999999994">E</text><circle cx="350" cy="423.20508075688775" r="10" stroke="blue" stroke-width="5" fill="white"></circle><text dominant-baseline="central" text-anchor="middle" x="362.5" y="444.8557158514987">F</text><circle cx="250" cy="450" r="10" stroke="blue" stroke-width="5" fill="white"></circle><text dominant-baseline="central" text-anchor="middle" x="250" y="475">F♯</text><circle cx="150.00000000000006" cy="423.20508075688775" r="10" stroke="blue" stroke-width="5" fill="white"></circle><text dominant-baseline="central" text-anchor="middle" x="137.50000000000006" y="444.8557158514987">G</text><circle cx="76.7949192431123" cy="350.00000000000006" r="10" stroke="blue" stroke-width="5" fill="white"></circle><text dominant-baseline="central" text-anchor="middle" x="55.14428414850133" y="362.50000000000006">A♭</text><circle cx="50" cy="250.00000000000003" r="10" stroke="blue" stroke-width="5" fill="white"></circle><text dominant-baseline="central" text-anchor="middle" x="25" y="250.00000000000003">A</text><circle cx="76.79491924311228" cy="149.99999999999997" r="10" stroke="blue" stroke-width="5" fill="white"></circle><text dominant-baseline="central" text-anchor="middle" x="55.14428414850133" y="137.49999999999997">B♭</text><circle cx="149.99999999999991" cy="76.79491924311233" r="10" stroke="blue" stroke-width="5" fill="white"></circle><text dominant-baseline="central" text-anchor="middle" x="137.4999999999999" y="55.144284148501356">B</text></svg><svg x="1010" y="10" width="500" height="500"><circle cx="250" cy="250" r="200" stroke="blue" stroke-width="5" fill="none"></circle><line stroke="green" stroke-width="5" x1="250" y1="50" x2="440.21130325903073" y2="188.19660112501052"></line><circle cx="250" cy="50" r="10" fill="green"></circle><line stroke="green" stroke-width="5" x1="440.21130325903073" y1="188.19660112501052" x2="367.55705045849464" y2="411.8033988749895"></line><circle cx="440.21130325903073" cy="188.19660112501052" r="10" fill="green"></circle><line stroke="green" stroke-width="5" x1="367.55705045849464" y1="411.8033988749895" x2="132.4429495415054" y2="411.8033988749895"></line><circle cx="367.55705045849464" cy="411.8033988749895" r="10" fill="green"></circle><line stroke="green" stroke-width="5" x1="132.4429495415054" y1="411.8033988749895" x2="59.78869674096927" y2="188.19660112501055"></line><circle cx="132.4429495415054" cy="411.8033988749895" r="10" fill="green"></circle><line stroke="green" stroke-width="5" x1="59.78869674096927" y1="188.19660112501055" x2="250" y2="50"></line><circle cx="59.78869674096927" cy="188.19660112501055" r="10" fill="green"></circle><circle cx="250" cy="50" r="10" stroke="blue" stroke-width="5" fill="white"></circle><text dominant-baseline="central" text-anchor="middle" x="250" y="25">C</text><circle cx="350" cy="76.79491924311225" r="10" stroke="blue" stroke-width="5" fill="white"></circle><text dominant-baseline="central" text-anchor="middle" x="362.5" y="55.1442841485013">C♯</text><circle cx="423.2050807568877" cy="150" r="10" stroke="blue" stroke-width="5" fill="white"></circle><text dominant-baseline="central" text-anchor="middle" x="444.85571585149864" y="137.5">D</text><circle cx="450" cy="250" r="10" stroke="blue" stroke-width="5" fill="white"></circle><text dominant-baseline="central" text-anchor="middle" x="475" y="250">E♭</text><circle cx="423.20508075688775" cy="350" r="10" stroke="blue" stroke-width="5" fill="white"></circle><text dominant-baseline="central" text-anchor="middle" x="444.8557158514987" y="362.49999999999994">E</text><circle cx="350" cy="423.20508075688775" r="10" stroke="blue" stroke-width="5" fill="white"></circle><text dominant-baseline="central" text-anchor="middle" x="362.5" y="444.8557158514987">F</text><circle cx="250" cy="450" r="10" stroke="blue" stroke-width="5" fill="white"></circle><text dominant-baseline="central" text-anchor="middle" x="250" y="475">F♯</text><circle cx="150.00000000000006" cy="423.20508075688775" r="10" stroke="blue" stroke-width="5" fill="white"></circle><text dominant-baseline="central" text-anchor="middle" x="137.50000000000006" y="444.8557158514987">G</text><circle cx="76.7949192431123" cy="350.00000000000006" r="10" stroke="blue" stroke-width="5" fill="white"></circle><text dominant-baseline="central" text-anchor="middle" x="55.14428414850133" y="362.50000000000006">A♭</text><circle cx="50" cy="250.00000000000003" r="10" stroke="blue" stroke-width="5" fill="white"></circle><text dominant-baseline="central" text-anchor="middle" x="25" y="250.00000000000003">A</text><circle cx="76.79491924311228" cy="149.99999999999997" r="10" stroke="blue" stroke-width="5" fill="white"></circle><text dominant-baseline="central" text-anchor="middle" x="55.14428414850133" y="137.49999999999997">B♭</text><circle cx="149.99999999999991" cy="76.79491924311233" r="10" stroke="blue" stroke-width="5" fill="white"></circle><text dominant-baseline="central" text-anchor="middle" x="137.4999999999999" y="55.144284148501356">B</text></svg></svg>